<svg viewBox="0 0 55 55" fill="none" xmlns="http://www.w3.org/2000/svg">
<path d="M43.5417 9.16667V11.4583H38.9583V6.875H16.0417V11.4583H11.4583V6.875H6.875V48.125H11.4583V43.5417H16.0417V48.125H38.9583V43.5417H43.5417V48.125H48.125V6.875H43.5417V9.16667ZM11.4583 16.0417H16.0417V20.625H11.4583V16.0417ZM11.4583 25.2083H16.0417V29.7917H11.4583V25.2083ZM11.4583 38.9583V34.375H16.0417V38.9583H11.4583ZM38.9583 38.9583V34.375H43.5417V38.9583H38.9583ZM43.5417 29.7917H38.9583V25.2083H43.5417V29.7917ZM38.9583 20.625V16.0417H43.5417V20.625H38.9583Z" fill="white"/>
<path d="M18.992 28.12C18.992 26.4773 19.248 24.984 19.76 23.64C20.2933 22.2747 21.04 21.0907 22 20.088C22.96 19.0853 24.112 18.3067 25.456 17.752C26.8 17.1973 28.2827 16.8987 29.904 16.856C31.5467 16.8133 33.296 17.0693 35.152 17.624C35.152 18.52 35.152 19.4267 35.152 20.344C35.152 21.24 35.152 22.136 35.152 23.032C33.8933 22.4347 32.6453 22.0933 31.408 22.008C30.1707 21.9227 29.0507 22.0933 28.048 22.52C27.0453 22.9467 26.2453 23.6293 25.648 24.568C25.0507 25.4853 24.752 26.6693 24.752 28.12C24.752 29.5707 25.0507 30.7653 25.648 31.704C26.2453 32.6213 27.0453 33.2933 28.048 33.72C29.0507 34.1467 30.1707 34.3173 31.408 34.232C32.6453 34.1467 33.8933 33.8053 35.152 33.208C35.152 34.104 35.152 35.0107 35.152 35.928C35.152 36.824 35.152 37.72 35.152 38.616C33.296 39.1707 31.5467 39.4267 29.904 39.384C28.2827 39.3413 26.8 39.0427 25.456 38.488C24.112 37.9333 22.96 37.1547 22 36.152C21.04 35.1493 20.2933 33.976 19.76 32.632C19.248 31.2667 18.992 29.7627 18.992 28.12Z" fill="black"/>
</svg>
